<svg width="20" height="20" viewBox="0 0 20 20" fill="none" xmlns="http://www.w3.org/2000/svg">
<path fill-rule="evenodd" clip-rule="evenodd" d="M0 10C0 4.47715 4.47715 0 10 0C15.5228 0 20 4.47715 20 10C20 15.5228 15.5228 20 10 20C4.47715 20 0 15.5228 0 10ZM10.75 5.75781C10.75 5.3436 10.4142 5.00781 10 5.00781C9.5858 5.00781 9.25 5.3436 9.25 5.75781V9.2505H5.75736C5.34315 9.2505 5.00736 9.5862 5.00736 10.0005C5.00736 10.4147 5.34315 10.7505 5.75736 10.7505H9.25V14.2431C9.25 14.6573 9.5858 14.9931 10 14.9931C10.4142 14.9931 10.75 14.6573 10.75 14.2431V10.7505H14.2426C14.6569 10.7505 14.9926 10.4147 14.9926 10.0005C14.9926 9.5862 14.6569 9.2505 14.2426 9.2505H10.75V5.75781Z" fill="black"/>
</svg>
